<?xml version="1.0" standalone="no"?>
<!DOCTYPE svg PUBLIC "-//W3C//DTD SVG 20010904//EN"
 "http://www.w3.org/TR/2001/REC-SVG-20010904/DTD/svg10.dtd">
<svg version="1.0" xmlns="http://www.w3.org/2000/svg"
 width="512.000000pt" height="512.000000pt" viewBox="0 0 512.000000 512.000000"
 preserveAspectRatio="xMidYMid meet">
<metadata>
Created by potrace 1.11, written by Peter Selinger 2001-2013
</metadata>
<g transform="translate(0.000000,512.000000) scale(0.100000,-0.100000)"
fill="#000000" stroke="none">
<path d="M3796 4743 c-3 -4 -14 -7 -24 -8 -9 -1 -92 -8 -184 -15 -93 -7 -168
-17 -168 -22 0 -4 -7 -8 -15 -8 -9 0 -18 -7 -21 -15 -5 -11 -21 -15 -61 -15
-46 0 -56 -3 -60 -19 -3 -14 -20 -23 -56 -32 -28 -6 -58 -20 -67 -30 -8 -10
-31 -22 -50 -27 -25 -6 -36 -14 -38 -30 -3 -16 -10 -22 -28 -22 -14 0 -39 -13
-57 -30 -18 -16 -39 -30 -48 -30 -9 0 -21 -11 -27 -25 -6 -14 -19 -25 -27 -25
-9 0 -20 -11 -25 -25 -6 -15 -17 -25 -29 -25 -12 0 -20 -9 -24 -29 -4 -17 -14
-30 -26 -34 -12 -3 -25 -17 -31 -31 -5 -14 -13 -26 -18 -26 -5 0 -19 -9 -32
-20 -19 -17 -37 -20 -116 -20 -112 0 -134 7 -159 54 -11 20 -28 39 -37 42 -10
3 -18 13 -18 23 0 22 -19 41 -42 41 -11 0 -18 7 -18 20 0 12 -10 24 -24 30
-13 5 -27 18 -31 29 -3 12 -15 21 -25 21 -10 0 -32 14 -48 30 -17 17 -39 30
-50 30 -10 0 -24 11 -30 24 -8 18 -22 26 -53 31 -27 5 -43 13 -46 25 -3 13
-19 19 -53 24 -36 5 -52 13 -64 31 -15 23 -23 25 -86 25 -66 0 -70 1 -76 25
-6 23 -11 25 -58 25 -29 0 -102 5 -162 11 -81 8 -158 8 -299 0 -104 -7 -197
-14 -206 -17 -9 -3 -19 -14 -22 -24 -4 -17 -14 -20 -59 -20 -42 0 -59 -5 -82
-25 -16 -14 -48 -27 -73 -31 -33 -5 -47 -12 -50 -25 -3 -11 -14 -19 -25 -19
-18 0 -75 -33 -88 -51 -3 -4 -16 -9 -30 -10 -16 -3 -26 -11 -28 -25 -2 -15
-12 -24 -33 -28 -17 -3 -29 -12 -29 -21 0 -9 -8 -18 -17 -22 -20 -7 -93 -79
-93 -91 0 -5 -11 -14 -25 -20 -15 -7 -25 -20 -25 -33 0 -12 -8 -23 -19 -26
-11 -3 -21 -15 -23 -27 -2 -11 -13 -25 -25 -31 -14 -6 -27 -25 -35 -54 -7 -24
-20 -46 -29 -48 -11 -3 -19 -20 -23 -46 -4 -23 -16 -51 -27 -63 -13 -14 -23
-45 -29 -84 -6 -41 -16 -69 -28 -81 -27 -24 -37 -145 -29 -354 6 -165 17 -229
41 -238 8 -3 15 -30 19 -73 4 -53 10 -71 26 -83 14 -11 23 -32 27 -63 5 -36
11 -48 24 -48 13 0 19 -12 24 -50 4 -30 13 -54 25 -62 22 -16 41 -51 41 -77 0
-11 9 -22 20 -26 11 -3 20 -14 20 -24 0 -9 13 -32 30 -51 16 -19 29 -45 30
-56 0 -15 8 -24 25 -28 15 -4 25 -13 25 -25 0 -10 11 -26 25 -35 14 -9 25 -22
25 -30 0 -13 43 -68 90 -113 l25 -25 5 -256 c5 -255 5 -257 28 -267 16 -7 22
-18 22 -42 0 -51 9 -63 49 -64 20 -1 47 -4 61 -8 37 -10 102 11 111 37 5 12
15 22 23 22 7 0 17 11 20 25 4 14 12 25 19 25 6 0 21 14 32 31 18 27 24 30 59
24 49 -7 56 -12 56 -34 0 -10 9 -21 20 -24 11 -3 24 -17 30 -31 6 -16 17 -26
30 -26 13 0 20 -7 20 -20 0 -13 10 -24 26 -30 14 -6 28 -19 31 -29 3 -11 13
-21 24 -24 10 -3 23 -17 29 -31 5 -14 16 -26 25 -26 8 0 21 -11 27 -25 6 -13
19 -27 28 -30 10 -3 20 -14 23 -25 3 -11 16 -24 30 -29 13 -5 27 -19 30 -31 3
-12 15 -24 26 -27 11 -3 23 -13 26 -24 3 -10 14 -21 24 -24 11 -3 21 -14 24
-25 3 -11 16 -24 30 -29 13 -5 27 -19 30 -31 3 -12 15 -24 26 -27 11 -3 23
-13 26 -24 3 -10 15 -21 26 -24 11 -4 24 -18 29 -31 6 -14 18 -24 29 -24 12 0
23 -11 30 -30 5 -17 17 -33 25 -36 21 -8 36 -66 36 -137 0 -49 3 -60 19 -64
11 -3 21 -13 24 -23 4 -14 19 -20 62 -25 37 -5 66 -16 85 -31 15 -13 37 -24
49 -24 14 0 23 -8 27 -25 3 -13 14 -27 24 -30 10 -3 21 -17 24 -30 3 -13 15
-27 26 -30 11 -3 23 -18 26 -33 12 -54 16 -62 30 -62 8 0 19 -12 25 -27 5 -15
18 -32 28 -39 9 -7 23 -31 30 -53 8 -30 17 -41 31 -41 16 0 20 -7 20 -30 0
-25 4 -30 24 -30 17 0 26 -7 30 -25 4 -15 17 -30 31 -35 15 -6 25 -17 25 -29
0 -11 8 -22 18 -26 9 -3 29 -25 43 -48 14 -23 38 -48 52 -56 27 -14 29 -13 67
29 22 24 40 52 40 61 0 9 9 19 20 22 11 3 20 14 20 24 0 29 23 72 41 78 9 3
19 19 22 34 4 17 14 31 24 33 11 2 21 19 28 48 8 35 16 46 33 48 17 3 22 10
22 33 0 22 5 29 19 29 14 0 22 12 32 45 10 33 20 47 36 51 12 3 25 14 28 24 3
9 23 25 45 35 36 16 45 29 64 87 3 12 21 19 56 24 38 5 50 11 50 24 0 13 12
19 47 25 31 4 55 15 70 31 13 15 33 24 51 24 37 0 52 17 52 58 0 18 7 40 15
48 20 20 19 26 -6 55 -15 17 -19 32 -15 53 3 16 6 32 6 37 0 4 9 10 19 14 11
3 21 16 23 28 2 13 12 23 28 27 16 4 26 14 28 28 2 14 10 22 23 22 12 0 23 10
29 25 5 14 21 30 35 35 15 6 25 17 25 30 0 13 7 20 20 20 12 0 25 10 32 25 6
14 17 25 25 25 7 0 18 11 23 25 5 14 21 30 35 37 14 6 25 19 25 30 0 11 7 18
19 18 12 0 23 11 29 29 7 19 18 31 34 33 15 2 24 11 26 25 2 14 11 23 25 25
14 2 23 11 25 25 2 13 11 23 25 25 13 2 23 12 27 28 4 16 14 26 28 28 13 2 24
13 28 27 3 14 14 27 24 30 11 3 22 15 25 25 4 11 17 23 31 26 17 4 24 13 24
30 0 17 7 25 24 30 13 3 26 14 29 25 3 10 17 23 31 29 16 6 26 17 26 29 0 13
8 21 22 23 14 2 24 12 28 28 4 16 14 26 28 28 14 2 22 10 22 23 0 12 10 23 26
29 14 6 28 19 31 30 3 11 14 22 24 25 10 4 19 12 19 20 0 7 14 23 30 35 17 12
30 27 30 33 0 7 12 24 28 38 46 44 83 89 92 115 6 14 18 24 30 24 15 0 20 7
20 26 0 17 6 28 19 31 11 3 25 19 32 36 7 18 23 45 36 60 13 16 23 35 23 43 0
8 11 20 25 26 20 9 25 18 25 48 0 30 5 39 25 48 14 6 25 20 25 30 0 36 21 80
41 85 15 4 19 14 19 50 0 34 5 49 19 59 14 10 24 36 32 84 7 38 21 81 31 96
16 24 18 51 18 292 0 247 -1 268 -19 287 -12 13 -21 43 -25 82 -6 46 -13 66
-32 84 -17 15 -24 33 -24 58 0 28 -4 35 -19 35 -14 0 -24 13 -36 49 -10 32
-23 51 -35 54 -13 3 -20 14 -20 30 0 16 -7 26 -20 30 -11 3 -24 16 -29 30 -6
14 -19 28 -30 32 -12 3 -21 12 -21 20 0 16 -68 85 -84 85 -7 0 -18 11 -24 25
-7 14 -20 25 -31 25 -12 0 -21 9 -25 25 -5 19 -13 25 -35 25 -19 0 -30 6 -34
19 -3 11 -21 23 -51 32 -30 9 -46 19 -46 30 0 12 -13 18 -46 23 -31 4 -54 14
-70 31 -19 21 -32 25 -76 25 -57 0 -71 6 -80 31 -5 12 -38 18 -162 29 -86 7
-159 17 -162 21 -6 11 -48 12 -58 2z m-382 -641 c3 -5 -1 -9 -9 -9 -8 0 -12 4
-9 9 3 4 7 8 9 8 2 0 6 -4 9 -8z m1346 -5 c0 -8 -3 -17 -7 -20 -9 -9 -34 13
-27 24 8 14 34 11 34 -4z m-1820 -63 c41 -13 92 -24 113 -24 20 0 46 -4 57
-10 11 -5 29 -14 40 -20 11 -5 34 -10 51 -10 44 0 110 -21 116 -37 3 -7 23
-18 45 -23 21 -6 47 -20 56 -31 9 -10 24 -19 33 -19 24 0 76 -28 83 -45 3 -8
17 -15 31 -15 14 0 25 -4 25 -9 0 -14 103 -88 133 -95 18 -4 27 -13 27 -26 0
-15 9 -22 30 -26 23 -5 30 -12 30 -30 0 -14 8 -25 20 -29 11 -3 20 -12 20 -20
0 -7 10 -22 23 -32 28 -24 47 -57 47 -83 0 -13 7 -20 20 -20 14 0 22 -11 29
-37 6 -21 11 -46 11 -55 0 -10 8 -32 18 -50 24 -43 33 -202 23 -401 -7 -120
-12 -151 -26 -167 -13 -15 -21 -17 -31 -9 -18 15 -209 16 -227 1 -25 -21 -35
7 -42 113 -6 100 -19 155 -36 155 -5 0 -9 13 -9 28 0 17 -9 37 -22 48 -13 11
-32 32 -43 47 -19 26 -55 37 -55 17 0 -5 -9 -10 -21 -10 -27 0 -59 -17 -86
-47 -12 -12 -29 -23 -37 -23 -8 0 -18 -9 -21 -20 -3 -11 -14 -20 -23 -20 -9
-1 -33 -14 -52 -30 -19 -17 -42 -30 -52 -30 -9 0 -22 -9 -28 -20 -6 -11 -19
-20 -30 -20 -10 0 -22 -4 -25 -10 -3 -5 -14 -10 -24 -10 -10 0 -21 -9 -24 -19
-3 -14 -18 -21 -56 -26 -35 -5 -55 -13 -61 -25 -6 -11 -28 -22 -53 -27 -33 -7
-43 -13 -45 -31 -2 -13 -14 -27 -26 -32 -20 -7 -24 -18 -29 -86 -10 -116 -8
-373 4 -423 5 -24 19 -56 29 -72 11 -15 20 -33 20 -41 0 -7 10 -18 23 -23 15
-7 25 -23 31 -52 11 -47 39 -60 51 -23 8 24 43 26 60 4 7 -10 32 -19 64 -22
42 -4 58 -1 80 15 15 11 46 24 68 28 28 4 47 14 58 31 8 13 24 24 33 24 10 0
31 13 47 30 16 17 35 30 43 30 7 0 21 18 29 40 9 22 24 42 34 45 10 4 24 18
31 33 10 20 25 30 56 37 24 6 46 16 50 22 4 7 29 21 55 32 27 12 47 27 47 36
0 11 11 15 48 15 26 0 59 7 74 14 27 14 28 14 34 -10 9 -33 -1 -52 -28 -56
-15 -2 -24 -11 -26 -25 -2 -12 -12 -25 -23 -28 -10 -4 -19 -15 -19 -25 0 -10
-25 -44 -55 -75 -32 -32 -58 -69 -62 -86 -3 -16 -9 -29 -14 -29 -5 0 -9 -9 -9
-19 0 -11 -5 -21 -10 -23 -13 -4 -15 -161 -3 -165 24 -9 32 -22 38 -63 6 -40
3 -49 -19 -73 -22 -24 -32 -27 -86 -27 -33 0 -60 4 -60 10 0 6 -11 10 -25 10
-14 0 -25 -4 -25 -9 0 -5 -10 -11 -22 -13 -15 -2 -24 -11 -26 -26 -2 -13 -14
-28 -27 -34 -13 -6 -26 -19 -28 -29 -3 -10 -17 -23 -31 -29 -14 -5 -26 -16
-26 -25 0 -24 -48 -18 -75 10 -26 25 -32 59 -16 84 12 18 -8 51 -30 51 -18 0
-39 40 -39 75 0 24 -3 25 -55 25 -52 0 -55 -2 -55 -24 0 -17 -7 -27 -22 -32
-31 -9 -38 -22 -38 -66 0 -30 -4 -38 -18 -38 -11 0 -23 -13 -31 -35 -16 -45
-61 -65 -147 -65 l-63 0 -7 50 c-4 30 -12 50 -19 50 -19 0 -25 24 -25 94 0 48
-4 67 -18 79 -16 15 -21 15 -38 2 -10 -8 -29 -15 -41 -15 -18 0 -23 -6 -23
-24 0 -16 -7 -27 -19 -31 -23 -7 -37 -73 -28 -137 9 -67 7 -68 -109 -68 -98 0
-104 1 -104 20 0 12 -10 24 -24 30 -18 6 -26 19 -31 49 -4 26 -15 45 -31 56
-13 8 -24 23 -24 33 0 11 -14 21 -42 30 -38 12 -44 12 -55 -4 -7 -10 -13 -25
-13 -34 0 -9 -7 -25 -15 -36 -19 -25 -19 -73 1 -95 9 -10 14 -25 11 -34 -5
-12 -25 -15 -101 -15 -84 0 -95 2 -101 19 -8 25 -33 31 -135 31 -85 0 -85 0
-128 39 -46 43 -51 65 -25 114 24 45 24 179 -1 229 -14 30 -25 39 -55 44 -47
9 -60 20 -83 72 -13 29 -25 42 -38 42 -13 0 -20 7 -20 21 0 13 -10 23 -30 30
-19 7 -30 18 -30 30 0 13 -7 19 -24 19 -21 0 -24 6 -31 55 -4 32 -16 69 -31
90 -16 25 -24 50 -24 80 0 38 -3 45 -19 45 -20 0 -41 44 -41 86 0 13 -4 24
-10 24 -5 0 -10 8 -10 18 0 10 -4 22 -9 28 -11 11 -31 127 -31 176 0 28 -5 37
-22 41 -20 6 -21 10 -15 97 3 55 12 101 21 114 8 13 20 52 26 87 6 35 20 81
31 103 10 22 19 47 19 55 0 9 12 30 26 46 15 17 30 41 35 55 5 14 19 30 31 35
12 6 25 21 28 35 4 16 14 26 28 28 13 2 22 10 22 21 0 10 11 27 25 39 14 12
25 26 25 30 0 5 11 14 24 22 13 7 27 21 29 31 3 11 14 19 27 19 13 0 24 8 27
20 3 11 11 20 19 20 7 0 25 11 40 25 15 14 39 28 53 31 46 10 51 13 51 33 0
12 9 22 23 26 36 11 86 35 92 45 3 6 17 10 31 10 13 0 24 3 24 8 0 10 58 39
95 47 17 4 39 15 50 25 16 15 47 22 145 30 69 6 136 16 150 22 38 17 215 25
420 20 159 -4 196 -8 260 -28z m801 -89 c0 -5 -9 -11 -21 -13 -20 -3 -27 8
-13 22 10 9 34 3 34 -9z m322 -108 c3 -8 1 -20 -4 -28 -7 -12 -11 -11 -26 4
-16 15 -16 19 -3 27 20 13 27 12 33 -3z m-155 -55 c2 -7 -3 -12 -12 -12 -9 0
-16 7 -16 16 0 17 22 14 28 -4z m83 -63 c9 -17 8 -20 -3 -13 -13 9 -18 10 -38
13 -19 2 -10 21 10 21 10 0 24 -10 31 -21z m-2897 -1496 c4 -9 3 -20 -1 -24
-13 -13 -34 6 -27 24 8 22 20 22 28 0z m1068 -804 c31 -16 33 -71 5 -116 -14
-22 -29 -62 -33 -89 -4 -27 -13 -54 -21 -59 -21 -15 -5 -43 25 -47 109 -12
152 23 164 135 4 45 12 74 22 79 8 4 17 27 21 51 4 23 13 45 19 49 6 4 40 8
76 8 102 0 113 -13 125 -147 9 -98 12 -109 33 -118 12 -5 22 -17 22 -27 0 -9
5 -20 10 -23 18 -11 50 6 50 26 0 10 4 19 9 19 18 0 22 40 7 62 -11 15 -16 45
-16 90 l0 68 36 15 c20 8 77 20 126 25 84 10 91 9 119 -11 28 -19 29 -24 29
-94 0 -81 14 -107 50 -98 34 9 70 71 70 121 0 36 4 44 25 54 14 6 25 17 25 23
0 7 20 16 46 20 60 9 87 -12 78 -61 -5 -25 -1 -37 16 -54 20 -20 21 -30 18
-131 -3 -98 -5 -112 -24 -127 -12 -9 -24 -24 -27 -33 -3 -10 -26 -22 -55 -29
-34 -8 -52 -17 -55 -30 -4 -15 -16 -20 -53 -22 -41 -3 -49 -6 -52 -25 -3 -17
-12 -23 -52 -28 -34 -5 -51 -12 -55 -24 -4 -14 -20 -19 -78 -24 -41 -3 -93
-15 -121 -27 -54 -25 -82 -23 -191 9 -38 11 -98 21 -132 21 -43 0 -73 6 -98
20 -20 11 -51 20 -70 20 -49 0 -125 22 -125 36 0 11 -43 24 -82 24 -10 0 -31
12 -45 26 -30 30 -30 30 -25 301 2 148 3 152 25 156 31 7 137 -2 159 -14z
m460 -776 c3 -14 13 -18 48 -18 l45 0 0 -70 c-1 -63 -3 -71 -23 -80 -13 -5
-25 -20 -28 -31 -3 -12 -16 -26 -29 -32 -22 -10 -29 -24 -37 -76 -3 -16 -6
-15 -31 8 -30 28 -50 77 -41 101 3 8 23 15 47 17 37 3 42 6 45 31 2 17 -2 27
-10 28 -7 1 -24 2 -38 3 -39 2 -50 14 -50 57 0 33 -4 41 -25 49 -47 18 -27 30
49 30 63 0 75 -3 78 -17z m138 3 c0 -8 -8 -14 -19 -13 -11 0 -17 6 -14 14 7
18 33 17 33 -1z"/>
<path d="M1658 3154 c-5 -4 -8 -15 -8 -25 0 -10 -9 -20 -19 -24 -18 -6 -41
-51 -41 -83 0 -8 -9 -22 -19 -31 -17 -14 -21 -36 -27 -142 -6 -119 -18 -165
-35 -138 -8 14 -93 29 -109 19 -5 -3 -13 -40 -16 -82 -7 -73 -6 -76 19 -92 15
-11 27 -30 32 -52 4 -24 13 -38 31 -44 14 -6 24 -18 24 -29 0 -13 9 -20 30
-24 17 -4 30 -11 30 -17 0 -14 25 -40 39 -40 6 0 13 -11 17 -25 3 -14 13 -25
21 -25 16 0 93 -73 93 -88 0 -5 11 -14 24 -20 13 -6 27 -20 30 -30 4 -11 16
-22 26 -25 12 -3 20 -14 20 -25 0 -13 10 -24 28 -30 15 -6 48 -30 74 -55 51
-48 84 -57 197 -57 90 0 131 10 131 31 0 10 8 20 18 24 11 3 24 17 30 30 7 15
20 25 32 25 12 0 20 7 20 18 0 10 7 27 15 40 12 16 13 27 5 41 -17 33 -12 150
9 195 13 29 21 74 25 157 l6 115 -30 47 c-17 26 -30 57 -30 67 0 13 -7 20 -20
20 -11 0 -37 11 -58 24 -20 14 -54 28 -75 32 -23 4 -44 15 -53 29 -8 12 -27
25 -42 28 -15 3 -51 29 -80 56 -29 28 -59 51 -67 51 -7 0 -20 9 -28 20 -7 10
-25 24 -40 29 -17 7 -27 18 -27 31 0 11 -6 20 -14 20 -8 0 -23 12 -33 26 -16
22 -29 27 -84 31 -35 3 -67 2 -71 -3z"/>
</g>
</svg>
